<?xml version="1.0" encoding="UTF-8"?>
<svg width="32px" height="32px" viewBox="0 0 32 32" version="1.1" xmlns="http://www.w3.org/2000/svg" xmlns:xlink="http://www.w3.org/1999/xlink">
    <!-- Generator: Sketch 45.1 (43504) - http://www.bohemiancoding.com/sketch -->
    <title>Logo</title>
    <desc>Created with Sketch.</desc>
    <defs></defs>
    <g id="Symbols" stroke="none" stroke-width="1" fill="none" fill-rule="evenodd">
        <g id="Nav-/-Required-Plugin-Header" transform="translate(-9.000000, -26.000000)" fill="#FDB84A">
            <path d="M25,48.8571429 C22.014357,48.8571429 19.474382,46.9490111 18.5330416,44.2857143 L13.8000414,44.2857143 C14.7090299,48.7637266 18.2362734,52.2909701 22.7142857,53.2379877 L22.7142857,57.9998736 C14.9604705,56.728872 9,50.0605072 9,42 C9,37.6404455 10.7435725,33.6881243 13.5714286,30.8023252 L13.5714286,39.7142857 L18.5330416,39.7142857 C19.474382,37.0509889 22.014357,35.1428571 25,35.1428571 C27.985643,35.1428571 30.525618,37.0509889 31.4669584,39.7142857 L36.1999586,39.7142857 C35.141055,34.4977364 30.5290467,30.5714286 25,30.5714286 C22.4271865,30.5714286 20.0529384,31.4215882 18.1428571,32.8563059 L18.1428571,27.5397284 C20.2211545,26.5524368 22.546063,26 25,26 C33.836556,26 41,33.163444 41,42 C41,50.0605072 35.0395295,56.728872 27.2857143,57.9998736 L27.2857143,53.2379877 C31.7637266,52.2909701 35.2909701,48.7637266 36.1999586,44.2857143 L31.4669584,44.2857143 C30.525618,46.9490111 27.985643,48.8571429 25,48.8571429 Z" id="Logo"></path>
        </g>
    </g>
</svg>